<svg xmlns="http://www.w3.org/2000/svg" width="71.75" height="66.01" viewBox="0 0 71.75 66.01">
  <g id="icon_fankui" transform="translate(0 0)">
    <path id="路径_352" data-name="路径 352" d="M95.492,129.865h29.663a5.2,5.2,0,0,0,5.2-5.2V109.235a5.2,5.2,0,0,0-5.2-5.2H95.492a5.2,5.2,0,0,0-5.2,5.2v15.432A5.2,5.2,0,0,0,95.492,129.865Zm4.346,14.357H70.175a5.2,5.2,0,0,0-5.2,5.2v15.432a5.2,5.2,0,0,0,5.2,5.2H99.838a5.2,5.2,0,0,0,5.2-5.2V149.419A5.2,5.2,0,0,0,99.838,144.222Zm33.292-4.668-6.081-6.285a3.454,3.454,0,0,0-4.6-.326l-6.728,5.238a3.454,3.454,0,1,0,4.244,5.45l.741-.578a17.811,17.811,0,0,1-.362,2.041c-1.271,5.226-4.839,8.952-10.61,11.087a3.452,3.452,0,1,0,2.395,6.476c10.781-3.983,14.654-12.023,15.5-18.862l.546.562a3.452,3.452,0,1,0,4.961-4.8Zm-60.67,2.228a3.453,3.453,0,0,0,2.375-.945l6.191-5.861a3.454,3.454,0,1,0-4.749-5.018l-.684.648a17.672,17.672,0,0,1,.167-2.065c.758-5.323,3.951-9.38,9.486-12.06a3.455,3.455,0,1,0-3.01-6.219c-10.345,5.01-13.424,13.392-13.6,20.279l-.595-.509a3.453,3.453,0,1,0-4.476,5.258l6.659,5.665A3.419,3.419,0,0,0,72.46,141.782Z" transform="translate(-62.35 -104.038)" fill="#066cb4"/>
    <path id="路径_353" data-name="路径 353" d="M158.056,104.674a5.193,5.193,0,0,0-2.489-.635H125.9a5.2,5.2,0,0,0-5.2,5.2v15.432a5.2,5.2,0,0,0,5.2,5.2h29.663a5.173,5.173,0,0,0,3.238-1.136,49.731,49.731,0,0,0-.745-24.055ZM140.135,156.18a3.447,3.447,0,0,0-2.252,3.307,49.982,49.982,0,0,0,7.368-6.036A20.166,20.166,0,0,1,140.135,156.18Zm9.054-7.148a49.6,49.6,0,0,0,8.374-15.656l-.1-.106a3.454,3.454,0,0,0-4.6-.326l-6.728,5.238a3.454,3.454,0,1,0,4.244,5.45l.741-.578a17.01,17.01,0,0,1-.367,2.041,15.145,15.145,0,0,1-1.56,3.939Zm-18.943-4.81H100.583a5.2,5.2,0,0,0-5.2,5.2v15.432a5.528,5.528,0,0,0,.065.786,49.774,49.774,0,0,0,39.992-4.627V149.419A5.2,5.2,0,0,0,130.246,144.222Z" transform="translate(-92.758 -104.038)" fill="#2b81bf"/>
    <path id="路径_354" data-name="路径 354" d="M146.2,104.038H125.9a5.2,5.2,0,0,0-5.2,5.2v15.432a5.2,5.2,0,0,0,5.2,5.2h10.863A49.41,49.41,0,0,0,146.2,104.038ZM95.386,150.2c.424.012.847.033,1.275.033a49.5,49.5,0,0,0,23.7-6.008H100.583a5.2,5.2,0,0,0-5.2,5.2Z" transform="translate(-92.758 -104.038)" fill="#5097ca"/>
    <path id="路径_355" data-name="路径 355" d="M83.424,110.266c-10.264,4.965-13.371,13.253-13.591,20.112a49.292,49.292,0,0,0,7.323-2.969c1.03-4.765,4.146-8.439,9.278-10.924a3.455,3.455,0,1,0-3.01-6.219ZM64.358,130.423a3.441,3.441,0,0,0-.717,1.45,48.758,48.758,0,0,0,6.044-1.45l-.46-.391A3.457,3.457,0,0,0,64.358,130.423Zm35.577-26.384H96.681a5.2,5.2,0,0,0-5.2,5.2v7.38A49.7,49.7,0,0,0,99.935,104.038Z" transform="translate(-63.539 -104.038)" fill="#76aed6"/>
  </g>
</svg>
