<svg xmlns="http://www.w3.org/2000/svg" width="60.544" height="63.481" viewBox="0 0 60.544 63.481">
  <g id="icon_tongji" transform="translate(0 0)">
    <path id="路径_371" data-name="路径 371" d="M152.354,651.667H139.6a2.129,2.129,0,0,1-2.13-2.13V631.225a2.129,2.129,0,0,1,2.13-2.13h12.752a2.129,2.129,0,0,1,2.13,2.13v18.316A2.128,2.128,0,0,1,152.354,651.667Z" transform="translate(-137.472 -588.186)" fill="#2b81bf"/>
    <path id="路径_372" data-name="路径 372" d="M425.967,326.867H413.215a2.129,2.129,0,0,1-2.13-2.13V294.78a2.129,2.129,0,0,1,2.13-2.13h12.752a2.129,2.129,0,0,1,2.13,2.13v29.956A2.129,2.129,0,0,1,425.967,326.867Zm21.766,0H434.981a2.129,2.129,0,0,1-2.13-2.13V278.354a2.129,2.129,0,0,1,2.13-2.13h12.752a2.129,2.129,0,0,1,2.13,2.13v46.387A2.128,2.128,0,0,1,447.733,326.867Z" transform="translate(-389.319 -263.386)" fill="#066cb4"/>
    <path id="路径_373" data-name="路径 373" d="M203.684,114.842h18.658a.864.864,0,0,1,.863.863v19.314a.863.863,0,0,1-1.483.6l-5.022-5.2a.864.864,0,0,0-1.083-.126L189.7,146.8a.861.861,0,0,1-1.153-1.242l18.373-24.69a.865.865,0,0,0-.11-1.153l-3.7-3.376A.86.86,0,0,1,203.684,114.842Z" transform="translate(-184.317 -114.842)" fill="#5097ca"/>
    <path id="路径_374" data-name="路径 374" d="M425.159,292.65H414.121a2.985,2.985,0,0,0-2.985,2.985v28.242a2.985,2.985,0,0,0,2.985,2.985h4.032a47.2,47.2,0,0,0,9.995-4.631v-26.6A2.993,2.993,0,0,0,425.159,292.65Zm24.751-1.719V279.209a2.985,2.985,0,0,0-2.985-2.985H435.887a2.985,2.985,0,0,0-2.985,2.985v39.678A47.478,47.478,0,0,0,449.91,290.931Z" transform="translate(-389.366 -263.386)" fill="#2b81bf"/>
    <path id="路径_375" data-name="路径 375" d="M184.59,276.224h-.55a2.985,2.985,0,0,0-2.985,2.985v6.708A47.328,47.328,0,0,0,184.59,276.224Zm-8.716,17.9a2.976,2.976,0,0,0-2.562-1.478H162.274a2.985,2.985,0,0,0-2.985,2.985v11.938A47.63,47.63,0,0,0,175.874,294.129Zm-24.328,10.166H140.509a2.985,2.985,0,0,0-2.985,2.985v5.071c.314.008.627.025.941.025a47.393,47.393,0,0,0,16.068-2.794v-2.3A2.985,2.985,0,0,0,151.546,304.295Z" transform="translate(-137.519 -263.386)" fill="#5097ca"/>
    <path id="路径_376" data-name="路径 376" d="M203.571,144.167a47.622,47.622,0,0,0,28.7-29.325H217.68a.863.863,0,0,0-.582,1.5l3.7,3.376a.864.864,0,0,1,.11,1.153Z" transform="translate(-198.313 -114.842)" fill="#76aed6"/>
  </g>
</svg>
