<svg xmlns="http://www.w3.org/2000/svg" width="62.869" height="62.59" viewBox="0 0 62.869 62.59">
  <g id="icon_luru" transform="translate(0 0)">
    <path id="路径_300" data-name="路径 300" d="M177.949,145.975l-15.84,15.306a8.365,8.365,0,0,1-2.423,1.637l-8.2,3.67a9.661,9.661,0,0,1-13.074-11.974l2.827-8.183a8.454,8.454,0,0,1,2.057-3.258l17.387-17.147-1.3-1.495a3.156,3.156,0,0,0-2.379-1.087H128.459a9.316,9.316,0,0,0-9.307,9.29c-.016,10.638,0,32.119,0,43.975a9.252,9.252,0,0,0,9.233,9.233c6.244,0,18.507.012,29.341.012,5.519,0,10.671,0,14.463-.008a9.319,9.319,0,0,0,9.29-9.307V151.225a3.144,3.144,0,0,0-.766-2.057Z" transform="translate(-119.144 -123.365)" fill="#066cb4"/>
    <path id="路径_301" data-name="路径 301" d="M446.834,215.654l-16.593,16.467a2.765,2.765,0,0,0-.664,1.051l-2.827,8.183a3.94,3.94,0,0,0,5.336,4.883l8.2-3.67a2.762,2.762,0,0,0,.782-.53l15.819-15.42Z" transform="translate(-402.08 -208.241)" fill="#2b81bf"/>
    <path id="路径_302" data-name="路径 302" d="M748.635,128.129l-4.114-4.281a4.524,4.524,0,0,0-6.439-.086l-1.979,1.955,10.109,11.029,2.305-2.228A4.536,4.536,0,0,0,748.635,128.129Z" transform="translate(-687.024 -122.459)" fill="#0c6cb4"/>
    <path id="路径_303" data-name="路径 303" d="M179.252,146.576l-1.3-1.507-15.84,15.306a8.364,8.364,0,0,1-2.423,1.637l-8.2,3.67a9.661,9.661,0,0,1-13.074-11.974l2.827-8.183a8.454,8.454,0,0,1,2.057-3.258l17.387-17.147-1.3-1.495a3.156,3.156,0,0,0-2.379-1.087H128.459a9.316,9.316,0,0,0-9.307,9.29c-.016,10.638,0,32.119,0,43.975a9.252,9.252,0,0,0,9.233,9.233c3.315,0,8.325,0,13.917.008A50.4,50.4,0,0,0,179.252,146.576Zm.171-19.831-2.782-2.9a4.524,4.524,0,0,0-6.439-.086l-1.979,1.955,10.109,11.029,1.967-1.9A50.516,50.516,0,0,0,179.423,126.745Z" transform="translate(-119.144 -122.459)" fill="#2b81bf"/>
    <path id="路径_304" data-name="路径 304" d="M138.412,154.613l2.827-8.183a8.454,8.454,0,0,1,2.057-3.258l17.387-17.147-1.3-1.495a3.157,3.157,0,0,0-2.379-1.087H128.462a9.316,9.316,0,0,0-9.307,9.29c-.012,8.728-.008,24.751,0,36.774a50.058,50.058,0,0,0,20.752-5.832A9.637,9.637,0,0,1,138.412,154.613Z" transform="translate(-119.147 -123.365)" fill="#5097ca"/>
    <path id="路径_305" data-name="路径 305" d="M447.885,216.791l-1.043-1.136L430.25,232.121a2.765,2.765,0,0,0-.664,1.051l-2.827,8.183a3.935,3.935,0,0,0,1.043,4.171A50.4,50.4,0,0,0,447.885,216.791Z" transform="translate(-402.089 -208.241)" fill="#5097ca"/>
    <path id="路径_306" data-name="路径 306" d="M148.83,123.443H128.457a9.316,9.316,0,0,0-9.307,9.29c0,4.236-.008,10.195-.008,16.577A50.5,50.5,0,0,0,148.83,123.443Z" transform="translate(-119.142 -123.365)" fill="#76aed6"/>
  </g>
</svg>
