<svg xmlns="http://www.w3.org/2000/svg" width="57.135" height="66.087" viewBox="0 0 57.135 66.087">
  <g id="icon_list" transform="translate(0 0)">
    <path id="路径_377" data-name="路径 377" d="M376.408,100.358H359.563a4.439,4.439,0,0,1-4.44-4.439V92.094a4.439,4.439,0,0,1,4.44-4.439h16.846a4.439,4.439,0,0,1,4.439,4.439v3.824A4.442,4.442,0,0,1,376.408,100.358Z" transform="translate(-339.414 -87.654)" fill="#5097ca"/>
    <path id="路径_378" data-name="路径 378" d="M205.73,143.77h-2.863a10.018,10.018,0,0,1,.2,1.959,9.861,9.861,0,0,1-9.861,9.861H179.223a9.861,9.861,0,0,1-9.861-9.861,9.985,9.985,0,0,1,.2-1.959h-2.863a9.051,9.051,0,0,0-9.05,9.05v43.523a9.051,9.051,0,0,0,9.05,9.05H205.73a9.051,9.051,0,0,0,9.05-9.05V152.82A9.046,9.046,0,0,0,205.73,143.77Zm-19.416,50.064H170.369a3.148,3.148,0,0,1,0-6.3h15.945a3.148,3.148,0,0,1,0,6.3Zm16.194-11.359H170.369a3.148,3.148,0,0,1,0-6.3h32.139a3.148,3.148,0,0,1,0,6.3Zm0-12.439H170.369a3.148,3.148,0,1,1,0-6.3h32.139a3.148,3.148,0,1,1,0,6.3Z" transform="translate(-157.645 -139.306)" fill="#066cb4"/>
    <path id="路径_379" data-name="路径 379" d="M214.78,171.408V152.82a9.051,9.051,0,0,0-9.05-9.05h-2.863a10.018,10.018,0,0,1,.2,1.959,9.861,9.861,0,0,1-9.861,9.861H179.223a9.861,9.861,0,0,1-9.861-9.861,9.985,9.985,0,0,1,.2-1.959h-2.863a9.051,9.051,0,0,0-9.05,9.05v43.523a9.042,9.042,0,0,0,6.9,8.781c.664.024,1.332.041,2,.041A51.319,51.319,0,0,0,214.78,171.408Zm-44.411-7.665h32.139a3.148,3.148,0,0,1,0,6.3H170.369a3.148,3.148,0,1,1,0-6.3Zm15.945,30.091H170.369a3.148,3.148,0,0,1,0-6.3h15.945a3.148,3.148,0,0,1,0,6.3Zm-15.945-11.359a3.148,3.148,0,0,1,0-6.3h32.139a3.148,3.148,0,0,1,0,6.3Z" transform="translate(-157.645 -139.306)" fill="#2b81bf"/>
    <path id="路径_380" data-name="路径 380" d="M173.488,182.475h-3.12a3.148,3.148,0,0,1,0-6.3H183.96a51.955,51.955,0,0,0,6.623-6.142H170.369a3.148,3.148,0,1,1,0-6.3h25.077a51.126,51.126,0,0,0,5.987-12.581,9.85,9.85,0,0,1-8.227,4.431H179.223a9.861,9.861,0,0,1-9.861-9.861,9.985,9.985,0,0,1,.2-1.959h-2.863a9.051,9.051,0,0,0-9.05,9.05v33.87A50.893,50.893,0,0,0,173.488,182.475Zm29.529-37.715c.057-.33.114-.66.167-.99h-.314A10,10,0,0,1,203.017,144.759Z" transform="translate(-157.645 -139.306)" fill="#5097ca"/>
    <path id="路径_381" data-name="路径 381" d="M175,103.028a9.854,9.854,0,0,1-5.633-8.9,9.985,9.985,0,0,1,.2-1.959h-2.863a9.051,9.051,0,0,0-9.05,9.05v12.7A51.346,51.346,0,0,0,175,103.028Zm11.058-15.322H179.7a6.351,6.351,0,0,0-1.89,12.414A51.454,51.454,0,0,0,186.053,87.706Z" transform="translate(-157.645 -87.702)" fill="#76aed6"/>
  </g>
</svg>
