<?xml version="1.0" standalone="no"?><!DOCTYPE svg PUBLIC "-//W3C//DTD SVG 1.1//EN" "http://www.w3.org/Graphics/SVG/1.1/DTD/svg11.dtd"><svg t="1678972391398" class="icon" viewBox="0 0 1085 1024" version="1.1" xmlns="http://www.w3.org/2000/svg" p-id="3284" xmlns:xlink="http://www.w3.org/1999/xlink" width="211.9140625" height="200"><path d="M538.922192 737.789451a142.195994 142.195994 0 0 1-80.020512-25.072255l-433.976601-320.615797c-16.466177-13.514033-19.456446-37.561997-6.800225-54.696633 12.65495-17.135906 36.518644-21.349987 54.278529-9.585889l432.643497 320.082048c19.636904 13.986783 45.981263 13.986783 65.616897 0l426.773522-315.547718c17.762426-11.764097 41.622307-7.550016 54.278528 9.58589 12.656221 17.134635 9.665952 41.182599-6.800225 54.696632l-426.774793 315.547718a133.381499 133.381499 0 0 1-79.218617 25.606004z" p-id="3285" fill="#ff8e4a"></path><path d="M922.754284 1023.994917H149.222667c-80.649574-0.144875-146.119054-65.254709-146.703636-145.904283V383.83082c0-44.194472 35.82604-80.020512 80.020512-80.020512v573.479701A66.681854 66.681854 0 0 0 149.222667 943.974405H922.754284a66.679312 66.679312 0 0 0 66.683124-66.684396V303.810308c44.194472 0 80.020512 35.82604 80.020512 80.020512v494.259814c-0.584583 80.649574-66.052792 145.759408-146.703636 145.904283z" p-id="3286" fill="#ff8e4a"></path><path d="M1022.513367 921.568356a26.674775 26.674775 0 0 1-15.73799-5.333684l-359.827336-265.667541c-11.859409-8.764932-14.366762-25.486546-5.600559-37.344684 8.763661-11.858138 25.485276-14.366762 37.344685-5.600559l359.824794 266.73504a26.674775 26.674775 0 0 1-15.735449 48.012053l-0.268145-0.800625zM49.463584 917.300901a26.674775 26.674775 0 0 1-16.004864-48.013324L392.218556 604.153786c11.859409-8.763661 28.577211-6.25885 37.343414 5.599288 8.764932 11.859409 6.256309 28.578482-5.60183 37.344685L65.468449 912.23282a26.672233 26.672233 0 0 1-16.004865 5.068081z" p-id="3287" fill="#ff8e4a"></path><path d="M149.221397 241.538243H922.754284c80.649574 0.143604 146.119054 65.254709 146.702366 145.904283v494.259814c0 44.194472-35.824769 80.020512-80.020513 80.020512V388.243151a66.681854 66.681854 0 0 0-66.683124-66.684395H149.221397a66.679312 66.679312 0 0 0-66.683125 66.684395v573.479701c-44.194472 0-80.020512-35.824769-80.020512-80.020512V387.442526c0.585854-80.649574 66.054063-145.759408 146.703637-145.904283z" p-id="3288" fill="#ff8e4a"></path></svg>