<?xml version="1.0" standalone="no"?><!DOCTYPE svg PUBLIC "-//W3C//DTD SVG 1.1//EN" "http://www.w3.org/Graphics/SVG/1.1/DTD/svg11.dtd"><svg t="1678972534681" class="icon" viewBox="0 0 1092 1024" version="1.1" xmlns="http://www.w3.org/2000/svg" p-id="4311" xmlns:xlink="http://www.w3.org/1999/xlink" width="213.28125" height="200"><path d="M130.525867 970.069333c-65.262933 0-118.3744-55.432533-118.3744-123.630933V384.682667c0-8.533333 1.570133-15.018667 5.051733-20.6848A54.4768 54.4768 0 0 1 30.72 350.208L490.837333 18.705067a102.4 102.4 0 0 1 58.094934-17.885867c20.821333 0 40.823467 6.144 58.026666 17.885867l460.253867 331.502933c11.195733 8.192 12.765867 22.186667 12.765867 29.9008v466.056533c0 68.266667-53.111467 123.767467-118.510934 123.767467H130.525867v0.136533z m-20.411734-78.779733c-0.955733 0.8192-1.8432 1.570133-2.935466 2.2528l-7.5776 5.3248 8.192 4.096a53.725867 53.725867 0 0 0 22.7328 5.12h831.0784a52.565333 52.565333 0 0 0 22.528-5.051733l8.260266-4.027734-7.509333-5.3248-2.730667-2.2528L685.397333 632.149333l-80.896 47.104c-15.36 8.874667-35.157333 13.789867-55.432533 13.789867-20.48 0-40.209067-4.9152-55.773867-13.858133l-84.241066-49.288534-298.939734 261.393067z m-35.908266-50.9952l278.254933-243.234133-278.254933-161.792v405.026133z m667.784533-241.2544l276.0704 241.2544V438.613333l-276.0704 160.426667zM548.864 62.805333a40.823467 40.823467 0 0 0-21.504 6.007467l-0.136533 0.136533-428.6464 308.770134 425.984 247.671466 0.273066 0.068267a57.344 57.344 0 0 0 47.9232 0.136533l0.273067-0.136533 426.120533-247.739733L570.709333 68.949333l-0.136533-0.136533A42.5984 42.5984 0 0 0 548.864 62.805333z" fill="#888888" p-id="4312"></path></svg>